<mxfile host="app.diagrams.net" modified="2023-09-03T05:17:23.078Z" agent="Mozilla/5.0 (Windows NT 10.0; Win64; x64) AppleWebKit/537.36 (KHTML, like Gecko) Chrome/116.0.0.0 Safari/537.36" etag="snvGFF7EkqE7CU_vez0x" version="21.7.2" type="github">
  <diagram name="Page-1" id="vmIVtsfUiU3wfmPA_YQA">
    <mxGraphModel dx="3475" dy="1344" grid="1" gridSize="10" guides="1" tooltips="1" connect="1" arrows="1" fold="1" page="1" pageScale="1" pageWidth="1600" pageHeight="1200" math="0" shadow="0">
      <root>
        <mxCell id="0" />
        <mxCell id="1" parent="0" />
        <mxCell id="P5cGoQy2PzddgMnJaDp2-16" value="" style="edgeStyle=orthogonalEdgeStyle;rounded=0;orthogonalLoop=1;jettySize=auto;html=1;entryX=0;entryY=0.5;entryDx=0;entryDy=0;" edge="1" parent="1" source="P5cGoQy2PzddgMnJaDp2-1" target="P5cGoQy2PzddgMnJaDp2-21">
          <mxGeometry relative="1" as="geometry">
            <mxPoint x="480" y="140" as="targetPoint" />
          </mxGeometry>
        </mxCell>
        <mxCell id="P5cGoQy2PzddgMnJaDp2-20" value="No" style="edgeLabel;html=1;align=center;verticalAlign=middle;resizable=0;points=[];" vertex="1" connectable="0" parent="P5cGoQy2PzddgMnJaDp2-16">
          <mxGeometry x="-0.5138" y="2" relative="1" as="geometry">
            <mxPoint as="offset" />
          </mxGeometry>
        </mxCell>
        <mxCell id="P5cGoQy2PzddgMnJaDp2-18" value="" style="edgeStyle=orthogonalEdgeStyle;rounded=0;orthogonalLoop=1;jettySize=auto;html=1;" edge="1" parent="1" source="P5cGoQy2PzddgMnJaDp2-1" target="P5cGoQy2PzddgMnJaDp2-17">
          <mxGeometry relative="1" as="geometry" />
        </mxCell>
        <mxCell id="P5cGoQy2PzddgMnJaDp2-19" value="Yes" style="edgeLabel;html=1;align=center;verticalAlign=middle;resizable=0;points=[];" vertex="1" connectable="0" parent="P5cGoQy2PzddgMnJaDp2-18">
          <mxGeometry x="-0.475" y="-3" relative="1" as="geometry">
            <mxPoint as="offset" />
          </mxGeometry>
        </mxCell>
        <mxCell id="P5cGoQy2PzddgMnJaDp2-1" value="User has already logged in" style="rounded=1;whiteSpace=wrap;html=1;" vertex="1" parent="1">
          <mxGeometry x="270" y="110" width="120" height="60" as="geometry" />
        </mxCell>
        <mxCell id="P5cGoQy2PzddgMnJaDp2-17" value="Questions" style="rounded=1;whiteSpace=wrap;html=1;" vertex="1" parent="1">
          <mxGeometry x="70" y="110" width="120" height="60" as="geometry" />
        </mxCell>
        <mxCell id="P5cGoQy2PzddgMnJaDp2-23" value="" style="edgeStyle=orthogonalEdgeStyle;rounded=0;orthogonalLoop=1;jettySize=auto;html=1;exitX=1;exitY=0.75;exitDx=0;exitDy=0;" edge="1" parent="1" source="P5cGoQy2PzddgMnJaDp2-21" target="P5cGoQy2PzddgMnJaDp2-22">
          <mxGeometry relative="1" as="geometry">
            <mxPoint x="710" y="200" as="sourcePoint" />
          </mxGeometry>
        </mxCell>
        <mxCell id="P5cGoQy2PzddgMnJaDp2-24" value="Get Started" style="edgeLabel;html=1;align=center;verticalAlign=middle;resizable=0;points=[];" vertex="1" connectable="0" parent="P5cGoQy2PzddgMnJaDp2-23">
          <mxGeometry x="-0.525" relative="1" as="geometry">
            <mxPoint as="offset" />
          </mxGeometry>
        </mxCell>
        <mxCell id="P5cGoQy2PzddgMnJaDp2-50" style="edgeStyle=orthogonalEdgeStyle;rounded=0;orthogonalLoop=1;jettySize=auto;html=1;exitX=0.25;exitY=1;exitDx=0;exitDy=0;" edge="1" parent="1" source="P5cGoQy2PzddgMnJaDp2-21" target="P5cGoQy2PzddgMnJaDp2-25">
          <mxGeometry relative="1" as="geometry" />
        </mxCell>
        <mxCell id="P5cGoQy2PzddgMnJaDp2-51" value="Login" style="edgeLabel;html=1;align=center;verticalAlign=middle;resizable=0;points=[];" vertex="1" connectable="0" parent="P5cGoQy2PzddgMnJaDp2-50">
          <mxGeometry x="-0.3014" relative="1" as="geometry">
            <mxPoint as="offset" />
          </mxGeometry>
        </mxCell>
        <mxCell id="P5cGoQy2PzddgMnJaDp2-21" value="Logo Screen" style="rounded=1;whiteSpace=wrap;html=1;" vertex="1" parent="1">
          <mxGeometry x="480" y="110" width="120" height="60" as="geometry" />
        </mxCell>
        <mxCell id="P5cGoQy2PzddgMnJaDp2-30" value="" style="edgeStyle=orthogonalEdgeStyle;rounded=0;orthogonalLoop=1;jettySize=auto;html=1;" edge="1" parent="1" source="P5cGoQy2PzddgMnJaDp2-22" target="P5cGoQy2PzddgMnJaDp2-29">
          <mxGeometry relative="1" as="geometry" />
        </mxCell>
        <mxCell id="P5cGoQy2PzddgMnJaDp2-22" value="Create Account:&lt;br&gt;Enter Parent Email" style="whiteSpace=wrap;html=1;rounded=1;" vertex="1" parent="1">
          <mxGeometry x="770.25" y="120" width="120" height="60" as="geometry" />
        </mxCell>
        <mxCell id="P5cGoQy2PzddgMnJaDp2-37" style="edgeStyle=orthogonalEdgeStyle;rounded=0;orthogonalLoop=1;jettySize=auto;html=1;exitX=0.5;exitY=1;exitDx=0;exitDy=0;entryX=0.5;entryY=0;entryDx=0;entryDy=0;" edge="1" parent="1" source="P5cGoQy2PzddgMnJaDp2-25" target="P5cGoQy2PzddgMnJaDp2-34">
          <mxGeometry relative="1" as="geometry" />
        </mxCell>
        <mxCell id="P5cGoQy2PzddgMnJaDp2-85" style="edgeStyle=orthogonalEdgeStyle;rounded=0;orthogonalLoop=1;jettySize=auto;html=1;exitX=1;exitY=0.25;exitDx=0;exitDy=0;entryX=0.5;entryY=1;entryDx=0;entryDy=0;" edge="1" parent="1" source="P5cGoQy2PzddgMnJaDp2-25" target="P5cGoQy2PzddgMnJaDp2-21">
          <mxGeometry relative="1" as="geometry" />
        </mxCell>
        <mxCell id="P5cGoQy2PzddgMnJaDp2-86" value="Back Button" style="edgeLabel;html=1;align=center;verticalAlign=middle;resizable=0;points=[];" vertex="1" connectable="0" parent="P5cGoQy2PzddgMnJaDp2-85">
          <mxGeometry x="-0.2421" y="2" relative="1" as="geometry">
            <mxPoint as="offset" />
          </mxGeometry>
        </mxCell>
        <mxCell id="P5cGoQy2PzddgMnJaDp2-25" value="Login:&lt;br&gt;Enter Parent Email" style="whiteSpace=wrap;html=1;rounded=1;" vertex="1" parent="1">
          <mxGeometry x="260" y="210" width="120" height="60" as="geometry" />
        </mxCell>
        <mxCell id="P5cGoQy2PzddgMnJaDp2-32" value="" style="edgeStyle=orthogonalEdgeStyle;rounded=0;orthogonalLoop=1;jettySize=auto;html=1;" edge="1" parent="1" source="P5cGoQy2PzddgMnJaDp2-29" target="P5cGoQy2PzddgMnJaDp2-31">
          <mxGeometry relative="1" as="geometry" />
        </mxCell>
        <mxCell id="P5cGoQy2PzddgMnJaDp2-33" value="No" style="edgeLabel;html=1;align=center;verticalAlign=middle;resizable=0;points=[];" vertex="1" connectable="0" parent="P5cGoQy2PzddgMnJaDp2-32">
          <mxGeometry x="-0.55" relative="1" as="geometry">
            <mxPoint as="offset" />
          </mxGeometry>
        </mxCell>
        <mxCell id="P5cGoQy2PzddgMnJaDp2-52" style="edgeStyle=orthogonalEdgeStyle;rounded=0;orthogonalLoop=1;jettySize=auto;html=1;exitX=0;exitY=0.25;exitDx=0;exitDy=0;entryX=0.5;entryY=0;entryDx=0;entryDy=0;" edge="1" parent="1" source="P5cGoQy2PzddgMnJaDp2-29" target="P5cGoQy2PzddgMnJaDp2-43">
          <mxGeometry relative="1" as="geometry" />
        </mxCell>
        <mxCell id="P5cGoQy2PzddgMnJaDp2-53" value="Yes" style="edgeLabel;html=1;align=center;verticalAlign=middle;resizable=0;points=[];" vertex="1" connectable="0" parent="P5cGoQy2PzddgMnJaDp2-52">
          <mxGeometry x="-0.6416" y="-1" relative="1" as="geometry">
            <mxPoint as="offset" />
          </mxGeometry>
        </mxCell>
        <mxCell id="P5cGoQy2PzddgMnJaDp2-29" value="Call API&lt;br&gt;DoesParentEmailExistAlready" style="whiteSpace=wrap;html=1;rounded=1;" vertex="1" parent="1">
          <mxGeometry x="770.25" y="250" width="120" height="60" as="geometry" />
        </mxCell>
        <mxCell id="P5cGoQy2PzddgMnJaDp2-39" value="" style="edgeStyle=orthogonalEdgeStyle;rounded=0;orthogonalLoop=1;jettySize=auto;html=1;" edge="1" parent="1" source="P5cGoQy2PzddgMnJaDp2-31" target="P5cGoQy2PzddgMnJaDp2-38">
          <mxGeometry relative="1" as="geometry" />
        </mxCell>
        <mxCell id="P5cGoQy2PzddgMnJaDp2-31" value="Create Account:&lt;br&gt;Enter Password" style="whiteSpace=wrap;html=1;rounded=1;" vertex="1" parent="1">
          <mxGeometry x="770.25" y="390" width="120" height="60" as="geometry" />
        </mxCell>
        <mxCell id="P5cGoQy2PzddgMnJaDp2-48" value="" style="edgeStyle=orthogonalEdgeStyle;rounded=0;orthogonalLoop=1;jettySize=auto;html=1;" edge="1" parent="1" source="P5cGoQy2PzddgMnJaDp2-34" target="P5cGoQy2PzddgMnJaDp2-47">
          <mxGeometry relative="1" as="geometry" />
        </mxCell>
        <mxCell id="P5cGoQy2PzddgMnJaDp2-83" style="edgeStyle=orthogonalEdgeStyle;rounded=0;orthogonalLoop=1;jettySize=auto;html=1;exitX=0;exitY=0.25;exitDx=0;exitDy=0;entryX=0;entryY=0.75;entryDx=0;entryDy=0;" edge="1" parent="1" source="P5cGoQy2PzddgMnJaDp2-34" target="P5cGoQy2PzddgMnJaDp2-25">
          <mxGeometry relative="1" as="geometry" />
        </mxCell>
        <mxCell id="P5cGoQy2PzddgMnJaDp2-84" value="Back Button" style="edgeLabel;html=1;align=center;verticalAlign=middle;resizable=0;points=[];" vertex="1" connectable="0" parent="P5cGoQy2PzddgMnJaDp2-83">
          <mxGeometry x="-0.0067" relative="1" as="geometry">
            <mxPoint as="offset" />
          </mxGeometry>
        </mxCell>
        <mxCell id="P5cGoQy2PzddgMnJaDp2-90" value="" style="edgeStyle=orthogonalEdgeStyle;rounded=0;orthogonalLoop=1;jettySize=auto;html=1;" edge="1" parent="1" source="P5cGoQy2PzddgMnJaDp2-34" target="P5cGoQy2PzddgMnJaDp2-89">
          <mxGeometry relative="1" as="geometry" />
        </mxCell>
        <mxCell id="P5cGoQy2PzddgMnJaDp2-91" value="Forgot Password" style="edgeLabel;html=1;align=center;verticalAlign=middle;resizable=0;points=[];" vertex="1" connectable="0" parent="P5cGoQy2PzddgMnJaDp2-90">
          <mxGeometry x="-0.4632" y="2" relative="1" as="geometry">
            <mxPoint as="offset" />
          </mxGeometry>
        </mxCell>
        <mxCell id="P5cGoQy2PzddgMnJaDp2-34" value="Login:&lt;br&gt;Enter Password" style="whiteSpace=wrap;html=1;rounded=1;" vertex="1" parent="1">
          <mxGeometry x="260" y="340" width="120" height="60" as="geometry" />
        </mxCell>
        <mxCell id="P5cGoQy2PzddgMnJaDp2-79" style="edgeStyle=orthogonalEdgeStyle;rounded=0;orthogonalLoop=1;jettySize=auto;html=1;exitX=0.5;exitY=1;exitDx=0;exitDy=0;entryX=1;entryY=0.5;entryDx=0;entryDy=0;" edge="1" parent="1" source="P5cGoQy2PzddgMnJaDp2-38" target="P5cGoQy2PzddgMnJaDp2-40">
          <mxGeometry relative="1" as="geometry" />
        </mxCell>
        <mxCell id="P5cGoQy2PzddgMnJaDp2-80" value="Success" style="edgeLabel;html=1;align=center;verticalAlign=middle;resizable=0;points=[];" vertex="1" connectable="0" parent="P5cGoQy2PzddgMnJaDp2-79">
          <mxGeometry x="-0.5231" y="2" relative="1" as="geometry">
            <mxPoint as="offset" />
          </mxGeometry>
        </mxCell>
        <mxCell id="P5cGoQy2PzddgMnJaDp2-38" value="Call API&lt;br&gt;CreateParentAccount" style="whiteSpace=wrap;html=1;rounded=1;" vertex="1" parent="1">
          <mxGeometry x="770.25" y="530" width="120" height="60" as="geometry" />
        </mxCell>
        <mxCell id="P5cGoQy2PzddgMnJaDp2-71" value="" style="edgeStyle=orthogonalEdgeStyle;rounded=0;orthogonalLoop=1;jettySize=auto;html=1;" edge="1" parent="1" source="P5cGoQy2PzddgMnJaDp2-40" target="P5cGoQy2PzddgMnJaDp2-70">
          <mxGeometry relative="1" as="geometry" />
        </mxCell>
        <mxCell id="P5cGoQy2PzddgMnJaDp2-40" value="Add Student:&lt;br&gt;Enter NickName" style="whiteSpace=wrap;html=1;rounded=1;" vertex="1" parent="1">
          <mxGeometry x="510" y="750" width="120" height="60" as="geometry" />
        </mxCell>
        <mxCell id="P5cGoQy2PzddgMnJaDp2-46" value="" style="edgeStyle=orthogonalEdgeStyle;rounded=0;orthogonalLoop=1;jettySize=auto;html=1;entryX=1;entryY=0.5;entryDx=0;entryDy=0;" edge="1" parent="1" source="P5cGoQy2PzddgMnJaDp2-43" target="P5cGoQy2PzddgMnJaDp2-47">
          <mxGeometry relative="1" as="geometry" />
        </mxCell>
        <mxCell id="P5cGoQy2PzddgMnJaDp2-43" value="Account Already Exists:&lt;br&gt;Enter Password" style="whiteSpace=wrap;html=1;rounded=1;" vertex="1" parent="1">
          <mxGeometry x="620" y="390" width="120" height="60" as="geometry" />
        </mxCell>
        <mxCell id="P5cGoQy2PzddgMnJaDp2-63" style="edgeStyle=orthogonalEdgeStyle;rounded=0;orthogonalLoop=1;jettySize=auto;html=1;exitX=0.5;exitY=1;exitDx=0;exitDy=0;entryX=0.5;entryY=0;entryDx=0;entryDy=0;" edge="1" parent="1" source="P5cGoQy2PzddgMnJaDp2-47" target="P5cGoQy2PzddgMnJaDp2-58">
          <mxGeometry relative="1" as="geometry" />
        </mxCell>
        <mxCell id="P5cGoQy2PzddgMnJaDp2-66" style="edgeStyle=orthogonalEdgeStyle;rounded=0;orthogonalLoop=1;jettySize=auto;html=1;exitX=0.5;exitY=1;exitDx=0;exitDy=0;" edge="1" parent="1" source="P5cGoQy2PzddgMnJaDp2-47" target="P5cGoQy2PzddgMnJaDp2-65">
          <mxGeometry relative="1" as="geometry" />
        </mxCell>
        <mxCell id="P5cGoQy2PzddgMnJaDp2-81" style="edgeStyle=orthogonalEdgeStyle;rounded=0;orthogonalLoop=1;jettySize=auto;html=1;exitX=0;exitY=0.5;exitDx=0;exitDy=0;entryX=0;entryY=0.75;entryDx=0;entryDy=0;" edge="1" parent="1" source="P5cGoQy2PzddgMnJaDp2-47" target="P5cGoQy2PzddgMnJaDp2-34">
          <mxGeometry relative="1" as="geometry" />
        </mxCell>
        <mxCell id="P5cGoQy2PzddgMnJaDp2-82" value="Login Fail" style="edgeLabel;html=1;align=center;verticalAlign=middle;resizable=0;points=[];" vertex="1" connectable="0" parent="P5cGoQy2PzddgMnJaDp2-81">
          <mxGeometry x="0.0314" y="1" relative="1" as="geometry">
            <mxPoint as="offset" />
          </mxGeometry>
        </mxCell>
        <mxCell id="P5cGoQy2PzddgMnJaDp2-47" value="Call API&lt;br&gt;LoginParent" style="whiteSpace=wrap;html=1;rounded=1;" vertex="1" parent="1">
          <mxGeometry x="260" y="480" width="120" height="60" as="geometry" />
        </mxCell>
        <mxCell id="P5cGoQy2PzddgMnJaDp2-60" value="" style="edgeStyle=orthogonalEdgeStyle;rounded=0;orthogonalLoop=1;jettySize=auto;html=1;" edge="1" parent="1" source="P5cGoQy2PzddgMnJaDp2-58" target="P5cGoQy2PzddgMnJaDp2-59">
          <mxGeometry relative="1" as="geometry" />
        </mxCell>
        <mxCell id="P5cGoQy2PzddgMnJaDp2-58" value="Success&lt;br&gt;Parent has1 or more Students" style="whiteSpace=wrap;html=1;rounded=1;" vertex="1" parent="1">
          <mxGeometry x="210" y="580" width="120" height="60" as="geometry" />
        </mxCell>
        <mxCell id="P5cGoQy2PzddgMnJaDp2-61" style="edgeStyle=orthogonalEdgeStyle;rounded=0;orthogonalLoop=1;jettySize=auto;html=1;exitX=0;exitY=0.25;exitDx=0;exitDy=0;entryX=0.75;entryY=1;entryDx=0;entryDy=0;" edge="1" parent="1" source="P5cGoQy2PzddgMnJaDp2-59" target="P5cGoQy2PzddgMnJaDp2-17">
          <mxGeometry relative="1" as="geometry" />
        </mxCell>
        <mxCell id="P5cGoQy2PzddgMnJaDp2-62" value="Student Selected" style="edgeLabel;html=1;align=center;verticalAlign=middle;resizable=0;points=[];" vertex="1" connectable="0" parent="P5cGoQy2PzddgMnJaDp2-61">
          <mxGeometry x="-0.7351" y="-1" relative="1" as="geometry">
            <mxPoint as="offset" />
          </mxGeometry>
        </mxCell>
        <mxCell id="P5cGoQy2PzddgMnJaDp2-68" style="edgeStyle=orthogonalEdgeStyle;rounded=0;orthogonalLoop=1;jettySize=auto;html=1;" edge="1" parent="1" source="P5cGoQy2PzddgMnJaDp2-59" target="P5cGoQy2PzddgMnJaDp2-40">
          <mxGeometry relative="1" as="geometry" />
        </mxCell>
        <mxCell id="P5cGoQy2PzddgMnJaDp2-69" value="Add Student" style="edgeLabel;html=1;align=center;verticalAlign=middle;resizable=0;points=[];" vertex="1" connectable="0" parent="P5cGoQy2PzddgMnJaDp2-68">
          <mxGeometry x="-0.5211" relative="1" as="geometry">
            <mxPoint as="offset" />
          </mxGeometry>
        </mxCell>
        <mxCell id="P5cGoQy2PzddgMnJaDp2-59" value="Show List of students to select. Also provide ability to Add student" style="whiteSpace=wrap;html=1;rounded=1;" vertex="1" parent="1">
          <mxGeometry x="220" y="750" width="120" height="60" as="geometry" />
        </mxCell>
        <mxCell id="P5cGoQy2PzddgMnJaDp2-67" style="edgeStyle=orthogonalEdgeStyle;rounded=0;orthogonalLoop=1;jettySize=auto;html=1;exitX=0.5;exitY=1;exitDx=0;exitDy=0;entryX=0.25;entryY=0;entryDx=0;entryDy=0;" edge="1" parent="1" source="P5cGoQy2PzddgMnJaDp2-65" target="P5cGoQy2PzddgMnJaDp2-40">
          <mxGeometry relative="1" as="geometry" />
        </mxCell>
        <mxCell id="P5cGoQy2PzddgMnJaDp2-65" value="Success But Parent has 0 Students" style="whiteSpace=wrap;html=1;rounded=1;" vertex="1" parent="1">
          <mxGeometry x="370" y="580" width="120" height="60" as="geometry" />
        </mxCell>
        <mxCell id="P5cGoQy2PzddgMnJaDp2-73" value="" style="edgeStyle=orthogonalEdgeStyle;rounded=0;orthogonalLoop=1;jettySize=auto;html=1;" edge="1" parent="1" source="P5cGoQy2PzddgMnJaDp2-70" target="P5cGoQy2PzddgMnJaDp2-72">
          <mxGeometry relative="1" as="geometry" />
        </mxCell>
        <mxCell id="P5cGoQy2PzddgMnJaDp2-70" value="Add Student:&lt;br&gt;Enter Grade" style="whiteSpace=wrap;html=1;rounded=1;" vertex="1" parent="1">
          <mxGeometry x="510" y="860" width="120" height="60" as="geometry" />
        </mxCell>
        <mxCell id="P5cGoQy2PzddgMnJaDp2-75" value="" style="edgeStyle=orthogonalEdgeStyle;rounded=0;orthogonalLoop=1;jettySize=auto;html=1;" edge="1" parent="1" source="P5cGoQy2PzddgMnJaDp2-72" target="P5cGoQy2PzddgMnJaDp2-74">
          <mxGeometry relative="1" as="geometry" />
        </mxCell>
        <mxCell id="P5cGoQy2PzddgMnJaDp2-76" value="Success" style="edgeLabel;html=1;align=center;verticalAlign=middle;resizable=0;points=[];" vertex="1" connectable="0" parent="P5cGoQy2PzddgMnJaDp2-75">
          <mxGeometry x="-0.5515" y="2" relative="1" as="geometry">
            <mxPoint as="offset" />
          </mxGeometry>
        </mxCell>
        <mxCell id="P5cGoQy2PzddgMnJaDp2-72" value="Call API&lt;br&gt;CreateStudent" style="whiteSpace=wrap;html=1;rounded=1;" vertex="1" parent="1">
          <mxGeometry x="510" y="950" width="120" height="60" as="geometry" />
        </mxCell>
        <mxCell id="P5cGoQy2PzddgMnJaDp2-77" style="edgeStyle=orthogonalEdgeStyle;rounded=0;orthogonalLoop=1;jettySize=auto;html=1;exitX=0;exitY=0.5;exitDx=0;exitDy=0;entryX=0.25;entryY=1;entryDx=0;entryDy=0;" edge="1" parent="1" source="P5cGoQy2PzddgMnJaDp2-74" target="P5cGoQy2PzddgMnJaDp2-17">
          <mxGeometry relative="1" as="geometry" />
        </mxCell>
        <mxCell id="P5cGoQy2PzddgMnJaDp2-74" value="Welcome Screen" style="whiteSpace=wrap;html=1;rounded=1;" vertex="1" parent="1">
          <mxGeometry x="310" y="950" width="120" height="60" as="geometry" />
        </mxCell>
        <mxCell id="P5cGoQy2PzddgMnJaDp2-89" value="Link to Mail app&lt;br&gt;Subject: Forgot password; Body: Parent Email;" style="whiteSpace=wrap;html=1;rounded=1;" vertex="1" parent="1">
          <mxGeometry x="430" y="260" width="120" height="60" as="geometry" />
        </mxCell>
      </root>
    </mxGraphModel>
  </diagram>
</mxfile>
